<svg xmlns="http://www.w3.org/2000/svg" viewBox="0 0 24 24" preserveAspectRatio="xMidYMid meet" focusable="false" class="style-scope yt-icon" style="pointer-events: none; display: block; width: 100%; height: 100%;"><g fill-rule="evenodd" class="style-scope yt-icon"><path d="M22,13V8l-5-3l-5,3l0,0L7,5L2,8v5l10,6L22,13z M9,11H7v2H6v-2H4v-1h2V8h1v2h2V11z M15,13 c-0.55,0-1-0.45-1-1s0.45-1,1-1s1,0.45,1,1S15.55,13,15,13z M18,11c-0.55,0-1-0.45-1-1s0.45-1,1-1s1,0.45,1,1S18.55,11,18,11z" class="style-scope yt-icon"></path></g></svg>